    <svg version="1.1" xmlns="http://www.w3.org/2000/svg" xmlns:xlink="http://www.w3.org/1999/xlink" viewBox="0 0 203 97" xml:space="preserve">
	<defs>
        <!-- viewBox="0 0 203 97" -->
        <g id="smk-logo">
            <g id="emblem-title">
                <g id="emblem">
                    <path d="M0.1,5.3c0.2,5.5 0.3,10.8 0.5,16c0,6.8 2.7,13.4 6.3,17.7c3.6,4.4 7.7,6.6 9.1,6.7c1.4,-0.1 5.4,-2.3 9.1,-6.7c3.6,-4.3 6.3,-10.9 6.3,-17.7c0.2,-5.6 0.4,-10.7 0.5,-16c-10.3,3.5 -21.4,3.5 -31.8,0Zm26.6,29.4c-5.3,-4.8 -8.4,-8.5 -8.5,-8.6c0,0 -0.1,12.5 -0.1,13.1c2.5,0.3 3.5,-1.7 3.9,-2c0.6,-0.1 -0.2,4.5 -3.9,4.7c-0.1,1.1 -1.4,2.6 -2,2.7l-0.1,0c-1.6,0 -7,-3.3 -10.6,-9.9c4.5,-4.1 8.5,-8.4 8.5,-8.5c-0.4,0 -7.2,-0.9 -7.7,-1.1c-0.5,2.5 1.3,3.4 1.5,3.8c0,0.7 -3.8,-0.7 -3.8,-4.5c-1,-0.4 -1.9,-2.1 -1.9,-2.6c0,-4.9 -0.5,-9.7 -0.5,-14.6c4,5.3 8.1,10.1 12.3,14.4c0,0 0,-7.2 0,-7.7c-2.5,-0.6 -3.7,1 -4.1,1.2c-0.6,-0.1 0.4,-3.7 4.1,-3.5c0.1,-1.1 1.8,-2.2 2.3,-2.2c4.9,0 9.8,-0.7 14.5,-2.1c-4,5.3 -8.1,10.1 -12.3,14.4c0,0.1 7,-0.3 7.5,-0.5c0.5,-2.6 -1.3,-3.5 -1.5,-3.9c0,-0.6 3.8,-0.3 3.8,3.4c1.1,-0.1 1.9,0.8 1.9,1.3c0.1,4.1 -1.4,9.2 -3.3,12.7Z" style="fill-rule:nonzero;"/>
                    <path d="M16,23.9c0,0 0,-12 0,-14.6c0.5,0 2.1,1.1 2.3,2.2c3.7,-0.2 4.8,3.4 4.1,3.5c-0.4,-0.2 -1.6,-1.8 -4.1,-1.2c0,0.6 0,7.7 0,7.7c-0.7,0.9 -1.5,1.7 -2.3,2.4Z" style="fill-rule:nonzero;"/>
                    <path d="M16,23.9c0,0 -3.1,0.1 -6.4,-0.4c-3.3,-0.4 -6.4,-1.3 -7.6,-1.7c0,-0.5 0.8,-1.4 1.9,-1.3c0,-3.7 3.8,-3.9 3.8,-3.4c-0.2,0.4 -2,1.3 -1.5,3.9c0.5,0.3 7.5,0.7 7.5,0.5c0.8,0.9 1.6,1.7 2.3,2.4Z" style="fill-rule:nonzero;"/>
                    <path d="M16,23.9c0,0 3.1,0.1 6.4,-0.4c3.3,-0.4 6.4,-1.3 7.6,-1.7c0,0.5 -0.8,2.2 -1.9,2.6c0,3.8 -3.8,5.5 -3.8,4.8c0.2,-0.4 2,-1.8 1.5,-4.3c-0.5,0.3 -7.7,1.3 -7.7,1.1c-0.7,-0.6 -1.3,-1.3 -2.1,-2.1Z" style="fill-rule:nonzero;"/>
                    <path d="M16,23.9c0,0 0,18.2 0,20.7c-0.5,0 -1.9,-1.6 -2,-2.8c-3.7,-0.2 -4.6,-4.7 -3.9,-4.6c0.4,0.3 1.4,2.4 3.9,2c0,-0.6 -0.1,-13.1 -0.1,-13.1c0.8,-0.6 1.4,-1.4 2.1,-2.2Z" style="fill-rule:nonzero;"/>
                    <path d="M14.8,2.8l-1,-1.5l1.6,0.4l0.6,-1.5l0.7,1.5l1.6,-0.4l-1,1.5l1,1.1l-1.6,0l-0.7,1.5l-0.6,-1.5l-1.6,0l1,-1.1Z" style="fill-rule:nonzero;"/>
                </g>
                <g id="title">
                    <path d="M43.2,21.9c0.3,0.7 1.1,1.6 2.5,1.6c1.4,0 2.2,-1 2.2,-2.3c0,-2.9 -4.9,-1.6 -4.9,-5.3c0,-1.7 1.3,-2.9 3.4,-2.9c1,0 1.7,0.2 2.3,0.7c-0.2,0.4 -0.3,0.7 -0.4,1.3l-0.3,0c-0.2,-0.6 -0.7,-1.5 -1.9,-1.5c-1.2,0 -2,0.8 -2,1.9c0,2.9 4.9,1.7 4.9,5.1c0,1.9 -1.4,3.5 -3.8,3.5c-1.3,0 -2,-0.5 -2.6,-0.9c0.2,-0.5 0.2,-0.8 0.3,-1.4l0.3,0l0,0.2Z" style="fill-rule:nonzero;"/>
                    <path d="M51.9,14.4c0,0.8 0,1.5 0,2.3c0.2,0 0.9,0 1.7,0l0,0.6c-0.5,0 -1.3,0 -1.7,0c0,0.2 -0.1,2.6 -0.1,4c0,1.2 0,2.4 1.3,2.4c0.2,0 0.5,0 0.7,-0.1l0,0.4c-0.4,0.1 -0.8,0.2 -1.2,0.2c-1.3,0 -1.9,-0.7 -1.9,-1.9c0,-1.1 0.1,-2.5 0.1,-4.9c-0.3,0 -0.7,0 -1.1,0l0,-0.7c0.5,0 0.8,0 1,0c0,-0.4 0,-1.1 -0.1,-1.7l1.3,-0.6Z" style="fill-rule:nonzero;"/>
                    <path d="M55.6,22.3c0.5,0 0.9,0.4 0.9,0.9c0,0.5 -0.4,0.9 -0.9,0.9c-0.5,0 -0.9,-0.4 -0.9,-0.9c0,-0.5 0.4,-0.9 0.9,-0.9Z" style="fill-rule:nonzero;"/>
                    <path d="M64.6,13c1.4,2.9 2.9,5.7 4.5,8.6c0.6,-1.2 3.1,-5.7 4.6,-8.6l0.2,0c0.5,4 0.8,7.4 1.3,11c-0.2,0 -0.5,-0.1 -0.7,-0.1c-0.2,0 -0.5,0 -0.7,0.1c-0.2,-2.8 -0.4,-5.4 -0.8,-8c-1.4,2.6 -2.9,5.2 -4.1,8l-0.1,0c-1.2,-2.6 -2.6,-5.3 -4,-8c-0.3,2.6 -0.7,6.3 -0.7,8c-0.2,0 -0.4,-0.1 -0.5,-0.1c-0.2,0 -0.4,0 -0.5,0.1c0.5,-3.4 1.2,-7.7 1.5,-11Z" style="fill-rule:nonzero;"/>
                    <path d="M77,17.2c0.9,-0.7 1.7,-0.9 2.5,-0.9c1.5,0 2.5,0.9 2.5,2.3c0,1.2 -0.1,2.3 -0.1,3.6c0,0.5 0,1.2 0.6,1.2c0.1,0 0.2,0 0.3,-0.1l0,0.3c-0.2,0.1 -0.6,0.2 -1,0.2c-0.7,0 -1,-0.4 -1.1,-1c-0.7,0.7 -1.4,1.1 -2.4,1.1c-1,0 -2.1,-0.7 -2.1,-1.9c0,-1.2 0.8,-1.9 2.2,-2.1c2.3,-0.4 2.3,-0.5 2.3,-1.1c0,-1 -0.5,-2 -1.7,-2c-0.8,0 -1.6,0.4 -2,1.1l0,-0.7Zm3.8,2.8c-1.1,0.4 -3.3,0.2 -3.3,1.9c0,1 0.7,1.5 1.4,1.5c0.8,0 1.5,-0.5 1.8,-1.1l0.1,-2.3Z" style="fill-rule:nonzero;"/>
                    <path d="M87.7,17.8c-0.1,-0.1 -0.5,-0.2 -0.8,-0.2c-1,0 -1.6,1 -1.6,2.2c0,2.7 0,3.5 0.1,4.3c-0.2,0 -0.4,-0.1 -0.6,-0.1c-0.2,0 -0.4,0 -0.7,0.1c0.1,-0.8 0.1,-2 0.1,-3.7l0,-0.5c0,-0.8 0,-1.9 -0.1,-3.2c0.2,0 0.4,0.1 0.7,0.1c0.2,0 0.4,0 0.6,-0.1c-0.1,0.7 -0.1,1.1 -0.1,1.5c0.6,-1.1 1.3,-1.7 2.1,-1.7c0.2,0 0.3,0 0.5,0.1c-0.1,0.2 -0.1,0.8 -0.1,1.3l-0.1,-0.1Z" style="fill-rule:nonzero;"/>
                    <path d="M89.8,13c0.4,0 0.8,0.4 0.8,0.8c0,0.4 -0.4,0.8 -0.8,0.8c-0.4,0 -0.8,-0.4 -0.8,-0.8c0,-0.4 0.4,-0.8 0.8,-0.8Zm-0.6,6.4c0,-0.9 0,-2 -0.1,-2.9c0.2,0 0.5,0.1 0.7,0.1c0.2,0 0.5,0 0.7,-0.1c-0.1,0.9 -0.1,2 -0.1,2.9l0,1.6c0,0.9 0,2 0.1,2.9c-0.2,0 -0.5,-0.1 -0.7,-0.1c-0.2,0 -0.5,0 -0.7,0.1c0.1,-0.9 0.1,-2 0.1,-2.9l0,-1.6Z" style="fill-rule:nonzero;"/>
                    <path d="M95.5,16.3c2.2,0 3.2,1.4 3.2,3.2c0,0.2 0,0.4 0,0.6l-5.3,0c0,0.2 0,0.3 0,0.4c0,1.6 1,2.9 2.7,2.9c0.8,0 1.8,-0.5 2.3,-1.1l0.1,0l-0.1,0.8c-0.6,0.5 -1.6,1 -2.6,1c-2.2,0 -3.8,-1.6 -3.8,-3.7c-0.1,-2.5 1.2,-4.1 3.5,-4.1Zm-2.1,3.2l4.1,0c0,-1.1 -0.3,-2.7 -1.9,-2.7c-1.6,0 -2.2,1.6 -2.2,2.7Z" style="fill-rule:nonzero;"/>
                    <path d="M103.4,17.2c-1.4,0 -2.1,0.9 -2.1,2.6l0,1.2c0,0.9 0,2 0.1,2.9c-0.2,0 -0.5,-0.1 -0.7,-0.1c-0.2,0 -0.5,0 -0.7,0.1c0.1,-0.9 0.1,-2 0.1,-2.9l0,-1.6c0,-0.9 0,-2 -0.1,-2.9c0.2,0 0.5,0.1 0.7,0.1c0.2,0 0.4,0 0.6,-0.1c0,0.4 0,0.8 0,1.2c0.6,-0.9 1.4,-1.4 2.5,-1.4c1.2,0 2.5,0.6 2.5,2.7c0,0.9 -0.1,1.8 -0.1,2.9c0,0.7 0,1.3 0,2c-0.2,0 -0.4,-0.1 -0.7,-0.1c-0.3,0 -0.4,0 -0.6,0.1c0,-1.1 0.1,-2.3 0.1,-3.5l0,-1c0.1,-1.4 -0.6,-2.2 -1.6,-2.2Z" style="fill-rule:nonzero;"/>
                    <rect x="107.9" y="19.8" width="3.9" height="1" style="fill-rule:nonzero;"/>
                    <path d="M118,19c0,-0.7 0,-1.6 0,-2.5c0.2,0 0.5,0.1 0.7,0.1c0.2,0 0.4,0 0.6,-0.1c-0.1,1.2 -0.2,2.8 -0.2,4.3c0,1.1 0.2,1.6 0.5,1.9c0.3,0.3 0.7,0.6 1.3,0.6c0.9,0 1.5,-0.4 1.7,-1c0.3,-0.7 0.3,-0.8 0.3,-3.2c0,-0.8 0,-1.8 0,-2.6c0.2,0 0.4,0.1 0.7,0.1c0.2,0 0.4,0 0.6,-0.1c-0.1,1.6 -0.1,3.1 -0.1,4.7c0,0.9 0,1.8 0.1,2.7c-0.2,0 -0.4,-0.1 -0.6,-0.1c-0.2,0 -0.4,0 -0.6,0.1c0,-0.5 0,-0.9 0,-1.3c-0.5,1 -1.4,1.5 -2.4,1.5c-1.6,0 -2.6,-0.9 -2.6,-2.6c-0.1,-1 0,-1.8 0,-2.5Z" style="fill-rule:nonzero;"/>
                    <path d="M129.4,17.2c-1.4,0 -2.1,0.9 -2.1,2.6l0,1.2c0,0.9 0,2 0.1,2.9c-0.2,0 -0.5,-0.1 -0.7,-0.1c-0.2,0 -0.5,0 -0.7,0.1c0.1,-0.9 0.1,-2 0.1,-2.9l0,-1.6c0,-0.9 0,-2 -0.1,-2.9c0.2,0 0.5,0.1 0.7,0.1c0.2,0 0.4,0 0.6,-0.1c0,0.4 0,0.8 0,1.2c0.6,-0.9 1.4,-1.4 2.5,-1.4c1.2,0 2.5,0.6 2.5,2.7c0,0.9 -0.1,1.8 -0.1,2.9c0,0.7 0,1.3 0,2c-0.2,0 -0.4,-0.1 -0.7,-0.1c-0.2,0 -0.4,0 -0.6,0.1c0,-1.1 0.1,-2.3 0.1,-3.5l0,-1c0.1,-1.4 -0.5,-2.2 -1.6,-2.2Z" style="fill-rule:nonzero;"/>
                    <path d="M139.6,22.4c-0.3,0.7 -1.1,1.7 -2.7,1.7c-1.6,0 -3.2,-1.2 -3.2,-3.8c0,-2.6 1.7,-3.9 3.4,-3.9c1.2,0 2,0.5 2.4,1.6c0,-2 0,-4.4 -0.1,-5.8c0.2,0 0.5,0.1 0.7,0.1c0.2,0 0.4,0 0.7,-0.1c-0.1,1.3 -0.2,5.4 -0.2,8.1c0,1.4 0,2.5 0,3.7c-0.2,0 -0.4,-0.1 -0.6,-0.1c-0.2,0 -0.4,0 -0.6,0.1l0.2,-1.6Zm-2.3,1.1c1.6,0 2.3,-1.8 2.3,-3.5c0,-2 -0.8,-3.1 -2.3,-3.1c-1.5,0 -2.2,1.5 -2.2,3.4c0,2.6 1.2,3.2 2.2,3.2Z" style="fill-rule:nonzero;"/>
                    <path d="M43.2,38.3c0.3,0.7 1.1,1.6 2.5,1.6c1.4,0 2.2,-1 2.2,-2.3c0,-2.9 -4.9,-1.6 -4.9,-5.3c0,-1.7 1.3,-2.9 3.4,-2.9c1,0 1.7,0.2 2.3,0.7c-0.2,0.4 -0.3,0.7 -0.4,1.3l-0.3,0c-0.2,-0.6 -0.7,-1.5 -1.9,-1.5c-1.2,0 -2,0.8 -2,1.9c0,2.9 4.9,1.7 4.9,5.1c0,1.9 -1.4,3.5 -3.8,3.5c-1.3,0 -2,-0.5 -2.6,-0.9c0.2,-0.5 0.2,-0.8 0.3,-1.4l0.3,0l0,0.2Z" style="fill-rule:nonzero;"/>
                    <path d="M51.9,30.8c0,0.8 0,1.5 0,2.3c0.2,0 0.9,0 1.7,0l0,0.6c-0.5,0 -1.3,0 -1.7,0c0,0.2 -0.1,2.6 -0.1,4c0,1.2 0,2.4 1.3,2.4c0.2,0 0.5,0 0.7,-0.1l0,0.4c-0.4,0.1 -0.8,0.2 -1.2,0.2c-1.3,0 -1.9,-0.7 -1.9,-1.9c0,-1.1 0.1,-2.5 0.1,-4.9c-0.3,0 -0.7,0 -1.1,0l0,-0.7c0.5,0 0.8,0 1,0c0,-0.4 0,-1.1 -0.1,-1.7l1.3,-0.6Z" style="fill-rule:nonzero;"/>
                    <path d="M55.6,38.7c0.5,0 0.9,0.4 0.9,0.9c0,0.5 -0.4,0.9 -0.9,0.9c-0.5,0 -0.9,-0.4 -0.9,-0.9c0,-0.5 0.4,-0.9 0.9,-0.9Z" style="fill-rule:nonzero;"/>
                    <path d="M67.6,29.4c1.5,3.6 3.9,9.3 4.7,11c-0.3,0 -0.5,-0.1 -0.8,-0.1c-0.3,0 -0.5,0 -0.8,0.1c-0.3,-1.1 -1,-2.8 -1.6,-4.2l-3.9,0c-0.7,1.6 -1.2,3.2 -1.5,4.2c-0.2,0 -0.4,-0.1 -0.6,-0.1c-0.2,0 -0.4,0 -0.6,0.1c1.7,-3.6 3.3,-7.3 4.9,-11l0.2,0Zm-0.6,2.1l-1.7,4l3.4,0l-1.7,-4Z" style="fill-rule:nonzero;"/>
                    <path d="M76.8,33.6c-1.4,0 -2.1,0.9 -2.1,2.6l0,1.3c0,0.9 0,2 0.1,2.9c-0.2,0 -0.5,-0.1 -0.7,-0.1c-0.2,0 -0.5,0 -0.7,0.1c0.1,-0.9 0.1,-2 0.1,-2.9l0,-1.6c0,-0.9 0,-2 -0.1,-2.9c0.2,0 0.5,0.1 0.7,0.1c0.2,0 0.4,0 0.6,-0.1c0,0.4 0,0.8 0,1.2c0.6,-0.9 1.4,-1.4 2.5,-1.4c1.2,0 2.5,0.6 2.5,2.7c0,0.9 -0.1,1.8 -0.1,2.9c0,0.7 0,1.3 0,2c-0.2,0 -0.4,-0.1 -0.7,-0.1c-0.2,0 -0.4,0 -0.6,0.1c0,-1.1 0.1,-2.3 0.1,-3.5l0,-1c0.1,-1.5 -0.6,-2.3 -1.6,-2.3Z" style="fill-rule:nonzero;"/>
                    <path d="M84.9,33.6c-1.4,0 -2.1,0.9 -2.1,2.6l0,1.3c0,0.9 0,2 0.1,2.9c-0.2,0 -0.5,-0.1 -0.7,-0.1c-0.2,0 -0.5,0 -0.7,0.1c0.1,-0.9 0.1,-2 0.1,-2.9l0,-1.6c0,-0.9 0,-2 -0.1,-2.9c0.2,0 0.5,0.1 0.7,0.1c0.2,0 0.4,0 0.6,-0.1c0,0.4 0,0.8 0,1.2c0.6,-0.9 1.4,-1.4 2.5,-1.4c1.2,0 2.5,0.6 2.5,2.7c0,0.9 -0.1,1.8 -0.1,2.9c0,0.7 0,1.3 0,2c-0.2,0 -0.4,-0.1 -0.7,-0.1c-0.3,0 -0.4,0 -0.6,0.1c0,-1.1 0.1,-2.3 0.1,-3.5l0,-1c0.1,-1.5 -0.6,-2.3 -1.6,-2.3Z" style="fill-rule:nonzero;"/>
                    <path d="M89.7,33.6c0.9,-0.7 1.7,-0.9 2.5,-0.9c1.5,0 2.5,0.9 2.5,2.3c0,1.2 -0.1,2.3 -0.1,3.6c0,0.5 0,1.2 0.6,1.2c0.1,0 0.2,0 0.3,-0.1l0,0.3c-0.2,0.1 -0.6,0.2 -1,0.2c-0.7,0 -1,-0.4 -1.1,-1c-0.7,0.7 -1.4,1.1 -2.4,1.1c-1,0 -2.1,-0.7 -2.1,-1.9c0,-1.2 0.8,-1.9 2.2,-2.1c2.3,-0.4 2.3,-0.5 2.3,-1.1c0,-1 -0.5,-2 -1.7,-2c-0.8,0 -1.6,0.4 -2,1.1l-0.2,0l0,-0.7l0.2,0Zm3.9,2.8c-1.1,0.4 -3.3,0.2 -3.3,1.9c0,1 0.7,1.5 1.4,1.5c0.8,0 1.5,-0.5 1.8,-1.1l0.1,-2.3Z" style="fill-rule:nonzero;"/>
                    <path d="M97.1,38.8c0.2,0.4 0.9,1.1 1.8,1.1c0.8,0 1.5,-0.5 1.5,-1.4c0,-1.9 -3.7,-0.8 -3.7,-3.4c0,-1.4 0.9,-2.4 2.6,-2.4c0.8,0 1.2,0.3 1.7,0.4c-0.2,0.3 -0.3,0.9 -0.4,1.1l-0.2,0c-0.2,-0.5 -0.7,-1 -1.4,-1c-0.6,0 -1.3,0.4 -1.3,1.3c0,2 3.7,0.8 3.7,3.4c0,1.2 -1.1,2.5 -2.8,2.5c-1,0 -1.6,-0.3 -2,-0.5c0.1,-0.3 0.3,-0.8 0.3,-1.1l0.2,0Z" style="fill-rule:nonzero;"/>
                    <path d="M104.3,30.8c0,0.8 0,1.5 0,2.3c0.2,0 0.9,0 1.7,0l0,0.6c-0.5,0 -1.3,0 -1.7,0c0,0.2 -0.1,2.6 -0.1,4c0,1.2 0,2.4 1.3,2.4c0.2,0 0.5,0 0.7,-0.1l0,0.4c-0.4,0.1 -0.8,0.2 -1.2,0.2c-1.3,0 -1.9,-0.7 -1.9,-1.9c0,-1.1 0.1,-2.5 0.1,-4.9c-0.3,0 -0.7,0 -1.1,0l0,-0.7c0.5,0 0.8,0 1,0c0,-0.4 0,-1.1 -0.1,-1.7l1.3,-0.6Z" style="fill-rule:nonzero;"/>
                    <path d="M107.9,29.4c0.4,0 0.8,0.4 0.8,0.8c0,0.4 -0.4,0.8 -0.8,0.8c-0.4,0 -0.8,-0.4 -0.8,-0.8c0,-0.4 0.4,-0.8 0.8,-0.8Zm-0.6,6.4c0,-0.9 0,-2 -0.1,-2.9c0.2,0 0.5,0.1 0.7,0.1c0.2,0 0.5,0 0.7,-0.1c-0.1,0.9 -0.1,2 -0.1,2.9l0,1.6c0,0.9 0,2 0.1,2.9c-0.2,0 -0.5,-0.1 -0.7,-0.1c-0.2,0 -0.5,0 -0.7,0.1c0.1,-0.9 0.1,-2 0.1,-2.9l0,-1.6Z" style="fill-rule:nonzero;"/>
                    <path d="M114,29.8c-0.2,-0.2 -0.5,-0.2 -0.9,-0.2c-0.9,0 -1.3,0.7 -1.3,1.6c0,0.4 0.1,1.2 0.2,1.8c0.5,0 1.1,0 1.6,0l0,0.6c-0.5,0 -1.1,0 -1.6,0c0,2.3 0,4.5 0.1,6.8c-0.2,0 -0.5,-0.1 -0.7,-0.1c-0.2,0 -0.5,0 -0.7,0.1c0.1,-2.3 0.1,-4.5 0.1,-6.8c-0.4,0 -0.7,0 -1.1,0l0,-0.6c0.4,0 0.8,0 1.1,0c0,-1.2 0.5,-2.9 1.4,-3.8c0.4,-0.4 1,-0.7 1.6,-0.7c0.1,0 0.2,0 0.3,0c0.1,0.5 0,0.9 -0.1,1.3Z" style="fill-rule:nonzero;"/>
                    <path d="M116.6,30.8c0,0.8 0,1.5 0,2.3c0.2,0 0.9,0 1.7,0l0,0.6c-0.5,0 -1.3,0 -1.7,0c0,0.2 -0.1,2.6 -0.1,4c0,1.2 0,2.4 1.3,2.4c0.2,0 0.5,0 0.7,-0.1l0,0.4c-0.4,0.1 -0.8,0.2 -1.2,0.2c-1.3,0 -1.9,-0.7 -1.9,-1.9c0,-1.1 0.1,-2.5 0.1,-4.9c-0.3,0 -0.7,0 -1.1,0l0,-0.7c0.5,0 0.8,0 1,0c0,-0.4 0,-1.1 -0.1,-1.7l1.3,-0.6Z" style="fill-rule:nonzero;"/>
                    <path d="M119.6,38.8c0.2,0.4 0.9,1.1 1.8,1.1c0.8,0 1.5,-0.5 1.5,-1.4c0,-1.9 -3.7,-0.8 -3.7,-3.4c0,-1.4 0.9,-2.4 2.6,-2.4c0.8,0 1.2,0.3 1.7,0.4c-0.2,0.3 -0.3,0.9 -0.4,1.1l-0.2,0c-0.2,-0.5 -0.7,-1 -1.4,-1c-0.6,0 -1.3,0.4 -1.3,1.3c0,2 3.7,0.8 3.7,3.4c0,1.2 -1.1,2.5 -2.8,2.5c-1,0 -1.6,-0.3 -2,-0.5c0.1,-0.3 0.3,-0.8 0.3,-1.1l0.2,0Z" style="fill-rule:nonzero;"/>
                    <path d="M125.3,33c0,-1.4 0,-3.4 -0.1,-4.5c0.2,0 0.5,0.1 0.7,0.1c0.2,0 0.5,0 0.7,-0.1c-0.1,1 -0.1,3.1 -0.1,4.5l0,2.8c0,0.2 0.1,0.3 0.2,0.3c0.2,0 0.4,-0.2 0.6,-0.4c0.4,-0.3 1.9,-1.8 2.9,-2.9c0.2,0 0.4,0.1 0.6,0.1c0.2,0 0.4,0 0.8,-0.1c-1.3,1 -2.5,2.1 -3.6,3.1c1.2,1.4 2.5,2.9 3.8,4.3c-0.4,0 -0.6,-0.1 -0.9,-0.1c-0.3,0 -0.5,0 -0.8,0.1c-0.9,-1.2 -2.4,-2.9 -3.1,-3.7c-0.1,-0.1 -0.2,-0.2 -0.2,-0.2c-0.1,0 -0.2,0.1 -0.2,0.2l0,0.9c0,0.9 0,1.8 0.1,2.7c-0.2,0 -0.5,-0.1 -0.7,-0.1c-0.2,0 -0.5,0 -0.7,0.1c0.1,-1 0.1,-3.1 0.1,-4.5l0,-2.6l-0.1,0Z" style="fill-rule:nonzero;"/>
                    <path d="M136.2,34.2c-0.1,-0.1 -0.5,-0.2 -0.8,-0.2c-1,0 -1.6,1 -1.6,2.2c0,2.7 0,3.5 0.1,4.3c-0.2,0 -0.4,-0.1 -0.6,-0.1c-0.2,0 -0.4,0 -0.7,0.1c0.1,-0.8 0.1,-2 0.1,-3.7l0,-0.5c0,-0.8 0,-1.9 -0.1,-3.2c0.2,0 0.4,0.1 0.7,0.1c0.2,0 0.4,0 0.6,-0.1c-0.1,0.7 -0.1,1.1 -0.1,1.5c0.6,-1.1 1.3,-1.7 2.1,-1.7c0.2,0 0.3,0 0.5,0.1c-0.1,0.2 -0.1,0.8 -0.1,1.3l-0.1,-0.1Z" style="fill-rule:nonzero;"/>
                    <path d="M137.5,33.6c0.9,-0.7 1.7,-0.9 2.5,-0.9c1.5,0 2.5,0.9 2.5,2.3c0,1.2 -0.1,2.3 -0.1,3.6c0,0.5 0,1.2 0.6,1.2c0.1,0 0.2,0 0.3,-0.1l0,0.3c-0.2,0.1 -0.6,0.2 -1,0.2c-0.7,0 -1,-0.4 -1.1,-1c-0.7,0.7 -1.4,1.1 -2.4,1.1c-1,0 -2.1,-0.7 -2.1,-1.9c0,-1.2 0.8,-1.9 2.2,-2.1c2.3,-0.4 2.3,-0.5 2.3,-1.1c0,-1 -0.5,-2 -1.7,-2c-0.8,0 -1.6,0.4 -2,1.1l-0.2,0l0,-0.7l0.2,0Zm3.9,2.8c-1.1,0.4 -3.3,0.2 -3.3,1.9c0,1 0.7,1.5 1.4,1.5c0.8,0 1.5,-0.5 1.8,-1.1l0.1,-2.3Z" style="fill-rule:nonzero;"/>
                    <path d="M148.1,33.6c-1.4,0 -2.1,0.9 -2.1,2.6l0,1.3c0,0.9 0,2 0.1,2.9c-0.2,0 -0.5,-0.1 -0.7,-0.1c-0.2,0 -0.5,0 -0.7,0.1c0.1,-0.9 0.1,-2 0.1,-2.9l0,-1.6c0,-0.9 0,-2 -0.1,-2.9c0.2,0 0.5,0.1 0.7,0.1c0.2,0 0.4,0 0.6,-0.1c0,0.4 0,0.8 0,1.2c0.6,-0.9 1.4,-1.4 2.5,-1.4c1.2,0 2.5,0.6 2.5,2.7c0,0.9 -0.1,1.8 -0.1,2.9c0,0.7 0,1.3 0,2c-0.2,0 -0.4,-0.1 -0.7,-0.1c-0.3,0 -0.4,0 -0.6,0.1c0,-1.1 0.1,-2.3 0.1,-3.5l0,-1c0.1,-1.5 -0.6,-2.3 -1.6,-2.3Z" style="fill-rule:nonzero;"/>
                    <path d="M152.9,33c0,-1.4 0,-3.4 -0.1,-4.5c0.2,0 0.5,0.1 0.7,0.1c0.2,0 0.5,0 0.7,-0.1c-0.1,1 -0.1,3.1 -0.1,4.5l0,2.8c0,0.2 0.1,0.3 0.2,0.3c0.2,0 0.4,-0.2 0.6,-0.4c0.4,-0.3 1.9,-1.8 2.9,-2.9c0.2,0 0.4,0.1 0.6,0.1c0.2,0 0.4,0 0.8,-0.1c-1.3,1 -2.5,2.1 -3.6,3.1c1.2,1.4 2.5,2.9 3.8,4.3c-0.4,0 -0.6,-0.1 -0.9,-0.1c-0.3,0 -0.5,0 -0.8,0.1c-0.9,-1.2 -2.4,-2.9 -3.1,-3.7c-0.1,-0.1 -0.2,-0.2 -0.2,-0.2c-0.1,0 -0.2,0.1 -0.2,0.2l0,0.9c0,0.9 0,1.8 0.1,2.7c-0.2,0 -0.5,-0.1 -0.7,-0.1c-0.2,0 -0.5,0 -0.7,0.1c0.1,-1 0.1,-3.1 0.1,-4.5l0,-2.6l-0.1,0Z" style="fill-rule:nonzero;"/>
                    <path d="M162.7,32.7c2.2,0 3.2,1.4 3.2,3.2c0,0.2 0,0.4 0,0.6l-5.3,0c0,0.2 0,0.3 0,0.4c0,1.6 1,2.9 2.7,2.9c0.8,0 1.8,-0.5 2.3,-1.1l0.1,0l-0.1,0.8c-0.6,0.5 -1.6,1 -2.6,1c-2.2,0 -3.8,-1.6 -3.8,-3.7c0,-2.5 1.2,-4.1 3.5,-4.1Zm-2.1,3.2l4.1,0c0,-1.1 -0.3,-2.7 -1.9,-2.7c-1.6,0 -2.1,1.6 -2.2,2.7Z" style="fill-rule:nonzero;"/>
                    <path d="M170.6,33.6c-1.4,0 -2.1,0.9 -2.1,2.6l0,1.3c0,0.9 0,2 0.1,2.9c-0.2,0 -0.5,-0.1 -0.7,-0.1c-0.2,0 -0.5,0 -0.7,0.1c0.1,-0.9 0.1,-2 0.1,-2.9l0,-1.6c0,-0.9 0,-2 -0.1,-2.9c0.2,0 0.5,0.1 0.7,0.1c0.2,0 0.4,0 0.6,-0.1c0,0.4 0,0.8 0,1.2c0.6,-0.9 1.4,-1.4 2.5,-1.4c1.2,0 2.5,0.6 2.5,2.7c0,0.9 -0.1,1.8 -0.1,2.9c0,0.7 0,1.3 0,2c-0.2,0 -0.4,-0.1 -0.7,-0.1c-0.3,0 -0.4,0 -0.6,0.1c0,-1.1 0.1,-2.3 0.1,-3.5l0,-1c0.1,-1.5 -0.6,-2.3 -1.6,-2.3Z" style="fill-rule:nonzero;"/>
                    <path d="M175.4,33c0,-1.4 0,-3.4 -0.1,-4.5c0.2,0 0.5,0.1 0.7,0.1c0.2,0 0.5,0 0.7,-0.1c-0.1,1 -0.1,3.1 -0.1,4.4l0,1.2c0.6,-0.9 1.4,-1.4 2.5,-1.4c1.2,0 2.5,0.6 2.5,2.7c0,0.9 -0.1,1.8 -0.1,2.9c0,0.7 0,1.3 0,2c-0.2,0 -0.4,-0.1 -0.7,-0.1c-0.3,0 -0.4,0 -0.6,0.1c0,-1.1 0.1,-2.3 0.1,-3.5l0,-1c0,-1.5 -0.7,-2.4 -1.7,-2.4c-1.4,0 -2.1,0.9 -2.1,2.6c0,1.2 0,3.2 0.1,4.2c-0.2,0 -0.5,-0.1 -0.7,-0.1c-0.2,0 -0.5,0 -0.7,0.1c0.1,-1 0.1,-3.1 0.1,-4.5l0,-2.7l0.1,0Z" style="fill-rule:nonzero;"/>
                    <path d="M183.5,33.6c0.9,-0.7 1.7,-0.9 2.5,-0.9c1.5,0 2.5,0.9 2.5,2.3c0,1.2 -0.1,2.3 -0.1,3.6c0,0.5 0,1.2 0.6,1.2c0.1,0 0.2,0 0.3,-0.1l0,0.3c-0.2,0.1 -0.6,0.2 -1,0.2c-0.7,0 -1,-0.4 -1.1,-1c-0.7,0.7 -1.4,1.1 -2.4,1.1c-1,0 -2.1,-0.7 -2.1,-1.9c0,-1.2 0.8,-1.9 2.2,-2.1c2.3,-0.4 2.3,-0.5 2.3,-1.1c0,-1 -0.5,-2 -1.7,-2c-0.8,0 -1.6,0.4 -2,1.1l-0.2,0l0,-0.7l0.2,0Zm3.9,2.8c-1.1,0.4 -3.3,0.2 -3.3,1.9c0,1 0.7,1.5 1.4,1.5c0.8,0 1.5,-0.5 1.8,-1.1l0.1,-2.3Z" style="fill-rule:nonzero;"/>
                    <path d="M190.6,35.4c0,-0.7 0,-1.6 0,-2.5c0.2,0 0.5,0.1 0.7,0.1c0.2,0 0.4,0 0.6,-0.1c-0.1,1.2 -0.2,2.8 -0.2,4.3c0,1.1 0.2,1.6 0.5,1.9c0.3,0.3 0.7,0.6 1.3,0.6c0.9,0 1.5,-0.4 1.7,-1c0.3,-0.7 0.3,-0.8 0.3,-3.2c0,-0.8 0,-1.8 0,-2.6c0.2,0 0.4,0.1 0.7,0.1c0.2,0 0.4,0 0.6,-0.1c-0.1,1.6 -0.1,3.1 -0.1,4.7c0,0.9 0,1.8 0.1,2.7c-0.2,0 -0.4,-0.1 -0.6,-0.1c-0.2,0 -0.4,0 -0.6,0.1c0,-0.5 0,-0.9 0,-1.3c-0.5,1 -1.4,1.5 -2.4,1.5c-1.6,0 -2.6,-0.9 -2.6,-2.6c-0.1,-1 0,-1.8 0,-2.5Z" style="fill-rule:nonzero;"/>
                    <path d="M198.7,38.8c0.2,0.4 0.9,1.1 1.8,1.1c0.8,0 1.5,-0.5 1.5,-1.4c0,-1.9 -3.7,-0.8 -3.7,-3.4c0,-1.4 0.9,-2.4 2.6,-2.4c0.8,0 1.2,0.3 1.7,0.4c-0.2,0.3 -0.3,0.9 -0.4,1.1l-0.2,0c-0.2,-0.5 -0.7,-1 -1.4,-1c-0.6,0 -1.3,0.4 -1.3,1.3c0,2 3.7,0.8 3.7,3.4c0,1.2 -1.1,2.5 -2.8,2.5c-1,0 -1.6,-0.3 -2,-0.5c0.1,-0.3 0.3,-0.8 0.3,-1.1l0.2,0Z" style="fill-rule:nonzero;"/>
                </g>
            </g>
            <g id="description">
                <path d="M42.9,56.7l1.2,0l0,4.6l2.4,0l0,0.9l-3.6,0l0,-5.5Z" style="fill-rule:nonzero;"/>
                <path d="M48.3,58.4l0,2.3c0,0.3 0,0.9 0.6,0.9c0.7,0 0.7,-0.5 0.7,-1.2l0,-2l1.2,0l0,3.9l-1.1,0l0,-0.5c-0.1,0.2 -0.4,0.6 -1.1,0.6c-0.5,0 -1,-0.2 -1.2,-0.5c-0.3,-0.3 -0.3,-0.9 -0.3,-1l0,-2.4l1.2,0l0,-0.1Z" style="fill-rule:nonzero;"/>
                <path d="M54.6,56.7l1.1,0l0,5.5l-1.2,0l0,-0.6c-0.1,0.1 -0.2,0.3 -0.4,0.4c-0.3,0.2 -0.6,0.2 -0.8,0.2c-1,0 -1.7,-0.7 -1.7,-1.9c0,-1.3 0.7,-2.1 1.7,-2.1c0.7,0 1,0.4 1.1,0.5l0,-2l0.2,0Zm-0.9,4.9c0.3,0 0.6,-0.2 0.7,-0.4c0.2,-0.3 0.2,-0.7 0.2,-0.9c0,-0.8 -0.3,-1.2 -0.8,-1.2c-0.8,0 -0.8,0.9 -0.8,1.3c-0.1,0.6 0.1,1.2 0.7,1.2Z" style="fill-rule:nonzero;"/>
                <path d="M57.5,58.4l0.7,2.9l0.8,-2.9l1.3,0l0.8,2.9l0.8,-2.9l1.1,0l-1.3,3.9l-1.2,0l-0.8,-2.9l-0.8,2.9l-1.3,0l-1.3,-3.9l1.2,0Z" style="fill-rule:nonzero;"/>
                <path d="M63.6,56.7l1.2,0l0,1l-1.2,0l0,-1l0,0Zm0.1,1.7l1.1,0l0,3.9l-1.1,0l0,-3.9l0,0Z" style="fill-rule:nonzero;"/>
                <path d="M69.6,58.4c0,0.3 -0.1,0.6 -0.1,1l0,2.9c0,1.4 -1.2,1.6 -1.9,1.6c-0.6,0 -1.6,-0.1 -1.7,-1.2l1.1,0c0,0.1 0.1,0.5 0.7,0.5c0.3,0 0.6,-0.2 0.7,-0.5c0,-0.2 0,-0.3 0.1,-0.9c-0.4,0.5 -0.8,0.5 -1,0.5c-1.1,0 -1.6,-1 -1.6,-1.9c0,-1 0.5,-1.9 1.7,-1.9c0.7,0 1,0.4 1.1,0.6l0,-0.5l0.9,0l0,-0.2Zm-2,3c0.8,0 0.8,-0.9 0.8,-1.1c0,-0.4 -0.1,-1.2 -0.8,-1.2c-0.4,0 -0.8,0.3 -0.8,1.2c0,0.2 0,1.1 0.8,1.1Z" style="fill-rule:nonzero;"/>
                <path d="M71.4,61.2c0,0.2 0.2,0.5 0.6,0.5c0.4,0 0.6,-0.2 0.6,-0.5c0,-0.2 -0.1,-0.3 -0.5,-0.4l-0.7,-0.2c-0.3,-0.1 -1,-0.3 -1,-1.1c0,-0.8 0.7,-1.2 1.7,-1.2c0.8,0 1.5,0.4 1.5,1.1l-1,0c0,-0.4 -0.4,-0.5 -0.6,-0.5c-0.3,0 -0.5,0.1 -0.5,0.4c0,0.3 0.2,0.3 0.5,0.4l0.7,0.2c0.7,0.2 1,0.6 1,1.1c0,0.7 -0.6,1.3 -1.8,1.3c-0.5,0 -1,-0.1 -1.3,-0.5c-0.3,-0.3 -0.3,-0.6 -0.3,-0.8l1.1,0l0,0.2Z" style="fill-rule:nonzero;"/>
                <path d="M74.6,56.7l1.1,0l0,2.2c0.1,-0.2 0.4,-0.6 1.1,-0.6c0.6,0 0.9,0.3 1.1,0.5c0.1,0.2 0.3,0.5 0.3,1.1l0,2.4l-1.1,0l0,-2.3c0,-0.2 0,-0.8 -0.6,-0.8c-0.3,0 -0.7,0.2 -0.7,0.8l0,2.4l-1.1,0l0,-5.7l-0.1,0Z" style="fill-rule:nonzero;"/>
                <path d="M81.6,62.3c0,-0.2 0,-0.4 0,-0.5c-0.4,0.6 -0.9,0.6 -1.2,0.6c-0.6,0 -0.8,-0.2 -1,-0.3c-0.2,-0.2 -0.3,-0.5 -0.3,-0.9c0,-0.3 0.1,-0.9 0.8,-1.2c0.5,-0.2 1.2,-0.2 1.5,-0.2c0,-0.3 0,-0.4 -0.1,-0.5c0,-0.3 -0.3,-0.3 -0.4,-0.3c-0.2,0 -0.3,0.1 -0.4,0.2c-0.1,0.1 -0.1,0.3 -0.1,0.3l-1.1,0c0,-0.2 0,-0.6 0.4,-0.9c0.4,-0.3 0.8,-0.3 1.2,-0.3c0.3,0 1,0.1 1.4,0.5c0.3,0.3 0.3,0.8 0.3,1l0,1.6c0,0.3 0,0.7 0.1,1l-1.1,0l0,-0.1Zm-1.4,-1.2c0,0.3 0.2,0.6 0.6,0.6c0.2,0 0.4,-0.1 0.5,-0.2c0.2,-0.2 0.2,-0.5 0.2,-1c-0.7,-0.1 -1.3,0.1 -1.3,0.6Z" style="fill-rule:nonzero;"/>
                <path d="M83.7,59.2l-0.6,0l0,-0.8l0.6,0l0,-0.5c0,-0.7 0.2,-1.2 1.3,-1.2c0.1,0 0.3,0 0.6,0l0,0.8c-0.1,0 -0.1,0 -0.2,0c-0.6,0 -0.6,0.3 -0.6,0.5l0,0.5l0.7,0l0,0.8l-0.7,0l0,3.1l-1.1,0l0,-3.2Z" style="fill-rule:nonzero;"/>
                <path d="M86.9,60.6c0,0.3 0,1 0.8,1c0.3,0 0.6,-0.1 0.7,-0.5l1,0c0,0.2 -0.1,0.5 -0.4,0.8c-0.3,0.3 -0.8,0.5 -1.4,0.5c-0.3,0 -1,-0.1 -1.4,-0.5c-0.4,-0.4 -0.5,-0.9 -0.5,-1.5c0,-0.6 0.2,-1.4 0.8,-1.8c0.3,-0.2 0.7,-0.3 1.1,-0.3c0.6,0 1.2,0.2 1.6,0.9c0.3,0.5 0.2,1.1 0.2,1.4l-2.5,0Zm1.4,-0.7c0,-0.2 0,-0.9 -0.7,-0.9c-0.5,0 -0.7,0.4 -0.7,0.9l1.4,0Z" style="fill-rule:nonzero;"/>
                <path d="M90.3,59.1c0,0 0,-0.4 0,-0.7l1.1,0l0,0.6c0.1,-0.2 0.4,-0.7 1.3,-0.7c0.8,0 1.1,0.5 1.2,0.7c0.1,0.2 0.1,0.4 0.1,1.2l0,2.1l-1.2,0l0,-2.4c0,-0.2 0,-0.3 -0.1,-0.4c-0.1,-0.2 -0.3,-0.3 -0.6,-0.3c-0.2,0 -0.5,0.1 -0.6,0.3c-0.1,0.1 -0.1,0.3 -0.1,0.6l0,2.3l-1.1,0l0,-3.3l0,0Z" style="fill-rule:nonzero;"/>
                <path d="M99.6,62.3c0,-0.2 0,-0.4 0,-0.5c-0.4,0.6 -0.9,0.6 -1.2,0.6c-0.6,0 -0.8,-0.2 -1,-0.3c-0.2,-0.2 -0.3,-0.5 -0.3,-0.9c0,-0.3 0.1,-0.9 0.8,-1.2c0.5,-0.2 1.2,-0.2 1.5,-0.2c0,-0.3 0,-0.4 -0.1,-0.5c0,-0.3 -0.3,-0.3 -0.4,-0.3c-0.2,0 -0.3,0.1 -0.4,0.2c-0.1,0.1 -0.1,0.3 -0.1,0.3l-1.1,0c0,-0.2 0,-0.6 0.4,-0.9c0.4,-0.3 0.8,-0.3 1.2,-0.3c0.3,0 1,0.1 1.4,0.5c0.3,0.3 0.3,0.8 0.3,1l0,1.6c0,0.3 0,0.7 0.1,1l-1.1,0l0,-0.1Zm-1.4,-1.2c0,0.3 0.2,0.6 0.6,0.6c0.2,0 0.4,-0.1 0.5,-0.2c0.2,-0.2 0.2,-0.5 0.2,-1c-0.8,-0.1 -1.3,0.1 -1.3,0.6Z" style="fill-rule:nonzero;"/>
                <path d="M101.6,59.1c0,-0.2 0,-0.5 0,-0.7l1.1,0l0,0.5c0.1,-0.2 0.4,-0.6 1.2,-0.6c0.9,0 1.1,0.5 1.2,0.7c0.3,-0.6 0.8,-0.7 1.2,-0.7c0.8,0 1.1,0.5 1.2,0.6c0.2,0.3 0.2,0.8 0.2,1.1l0,2.2l-1.1,0l0,-2.2c0,-0.4 -0.1,-0.9 -0.7,-0.9c-0.7,0 -0.7,0.6 -0.7,1.2l0,2l-1.1,0l0,-2.3c0,-0.3 0,-0.9 -0.6,-0.9c-0.7,0 -0.7,0.6 -0.7,0.9l0,2.3l-1.1,0l0,-3.2l-0.1,0Z" style="fill-rule:nonzero;"/>
                <path d="M111.1,56.7l2.1,0c0.6,0 1.2,0 1.7,0.4c0.3,0.3 0.5,0.7 0.5,1.1c0,1 -0.9,1.3 -1.2,1.4c0.8,0.1 0.9,0.6 1,1.3c0.1,0.7 0.1,0.9 0.2,1.1c0.1,0.2 0.1,0.3 0.2,0.4l-1.3,0c-0.1,-0.3 -0.2,-1.7 -0.3,-1.9c-0.1,-0.3 -0.4,-0.3 -0.6,-0.3l-1,0l0,2.3l-1.2,0l0,-5.8l-0.1,0Zm1.2,2.5l1,0c0.1,0 0.4,0 0.6,-0.2c0.1,-0.1 0.3,-0.3 0.3,-0.6c0,-0.4 -0.2,-0.6 -0.3,-0.6c-0.2,-0.1 -0.4,-0.1 -0.8,-0.1l-0.8,0l0,1.5Z" style="fill-rule:nonzero;"/>
                <path d="M116.4,56.7l1.1,0l0,2.2c0.1,-0.2 0.4,-0.6 1.1,-0.6c0.6,0 0.9,0.3 1.1,0.5c0.1,0.2 0.3,0.5 0.3,1.1l0,2.4l-1.1,0l0,-2.3c0,-0.2 0,-0.8 -0.6,-0.8c-0.3,0 -0.7,0.2 -0.7,0.8l0,2.4l-1.1,0l0,-5.7l-0.1,0Z" style="fill-rule:nonzero;"/>
                <path d="M122,60.6c0,0.3 0,1 0.8,1c0.3,0 0.6,-0.1 0.7,-0.5l1,0c0,0.2 -0.1,0.5 -0.4,0.8c-0.3,0.3 -0.8,0.5 -1.4,0.5c-0.3,0 -1,-0.1 -1.4,-0.5c-0.4,-0.4 -0.5,-0.9 -0.5,-1.5c0,-0.6 0.2,-1.4 0.8,-1.8c0.3,-0.2 0.7,-0.3 1.1,-0.3c0.6,0 1.2,0.2 1.6,0.9c0.3,0.5 0.2,1.1 0.2,1.4l-2.5,0Zm1.5,-0.7c0,-0.2 0,-0.9 -0.7,-0.9c-0.5,0 -0.7,0.4 -0.7,0.9l1.4,0Z" style="fill-rule:nonzero;"/>
                <path d="M125.4,56.7l1.2,0l0,1l-1.2,0l0,-1Zm0.1,1.7l1.1,0l0,3.9l-1.1,0l0,-3.9Z" style="fill-rule:nonzero;"/>
                <path d="M127.7,59.1c0,0 0,-0.4 0,-0.7l1.1,0l0,0.6c0.1,-0.2 0.4,-0.7 1.3,-0.7c0.8,0 1.1,0.5 1.2,0.7c0.1,0.2 0.1,0.4 0.1,1.2l0,2.1l-1.2,0l0,-2.4c0,-0.2 0,-0.3 -0.1,-0.4c-0.1,-0.2 -0.3,-0.3 -0.6,-0.3c-0.2,0 -0.5,0.1 -0.6,0.3c-0.1,0.1 -0.1,0.3 -0.1,0.6l0,2.3l-1.1,0l0,-3.3l0,0Z" style="fill-rule:nonzero;"/>
                <path d="M42.8,77l2.2,-5.6l0.6,0l2.2,5.6l-0.5,0l-0.6,-1.5l-2.8,0l-0.6,1.5l-0.5,0Zm3.6,-2l-1.2,-3.1l-1.2,3.1l2.4,0Z" style="fill-rule:nonzero;"/>
                <path d="M49,74.7l1.9,-1.6l0.6,0l-2,1.7l2.1,2.2l-0.6,0l-2,-2.1l0,2.1l-0.5,0l0,-5.6l0.5,0l0,3.3Z" style="fill-rule:nonzero;"/>
                <path d="M54.5,74.3c0,-0.6 -0.4,-0.8 -0.9,-0.8c-0.5,0 -0.9,0.1 -0.9,0.7l-0.5,0c0.1,-0.8 0.7,-1.1 1.5,-1.1c0.9,0 1.4,0.4 1.4,1.3l0,2.7l-0.5,0l0,-0.6l0,0.1c-0.2,0.3 -0.7,0.6 -1.2,0.6c-0.7,0 -1.3,-0.4 -1.3,-1.2c0,-0.5 0.3,-0.9 0.8,-1.1c0.5,-0.2 1.2,-0.1 1.8,-0.2l0,-0.4l-0.2,0Zm-1.2,2.4c1,0 1.2,-0.8 1.2,-1.6c-0.7,0 -2,-0.1 -2,0.9c0,0.5 0.4,0.7 0.8,0.7Z" style="fill-rule:nonzero;"/>
                <path d="M58.8,76.4c-0.3,0.4 -0.8,0.7 -1.3,0.7c-1.1,0 -1.6,-1.1 -1.6,-2.1c0,-1 0.4,-2 1.6,-2c0.5,0 1.1,0.2 1.3,0.7l0,-2.3l0.5,0l0,5.6l-0.5,0l0,-0.6Zm-1.2,-3c-0.9,0 -1.2,0.8 -1.2,1.6c0,0.7 0.2,1.7 1.1,1.7c1,0 1.3,-0.8 1.3,-1.7c0,-0.8 -0.3,-1.6 -1.2,-1.6Z" style="fill-rule:nonzero;"/>
                <path d="M60.7,75.2c0,0.8 0.4,1.5 1.3,1.5c0.5,0 1,-0.4 1.1,-0.9l0.5,0c-0.2,0.9 -0.8,1.3 -1.8,1.3c-1.2,0 -1.7,-1 -1.7,-2.1c0,-1 0.6,-2.1 1.7,-2.1c1.3,0 1.8,0.9 1.8,2.2l-2.9,0l0,0.1Zm2.5,-0.4c-0.1,-0.7 -0.5,-1.3 -1.3,-1.3c-0.8,0 -1.2,0.6 -1.2,1.3l2.5,0Z" style="fill-rule:nonzero;"/>
                <path d="M65.2,73.7c0.3,-0.5 0.7,-0.7 1.2,-0.7c0.6,0 1.1,0.3 1.3,0.8c0.3,-0.4 0.7,-0.8 1.3,-0.8c1.3,0 1.4,1.1 1.4,1.6l0,2.4l-0.5,0l0,-2.5c0,-0.7 -0.4,-1.1 -1,-1.1c-0.8,0 -1.1,0.6 -1.1,1.3l0,2.3l-0.5,0l0,-2.5c0,-0.7 -0.4,-1.1 -1,-1.1c-0.8,0 -1.1,0.6 -1.1,1.3l0,2.3l-0.5,0l0,-3c0,-0.3 0,-0.6 0,-0.9l0.5,0l0,0.6Z" style="fill-rule:nonzero;"/>
                <path d="M72.1,72l-0.5,0l0,-0.6l0.5,0l0,0.6Zm0,1.1l0,3.9l-0.5,0l0,-3.9l0.5,0Z" style="fill-rule:nonzero;"/>
                <path d="M74.6,73c0.7,0 1.3,0.3 1.4,1.1l-0.5,0c0,-0.5 -0.5,-0.6 -1,-0.6c-0.4,0 -0.9,0.2 -0.9,0.6c0,0.6 0.7,0.5 1.8,0.9c0.4,0.1 0.7,0.5 0.7,0.9c0,0.9 -0.8,1.3 -1.6,1.3c-0.7,0 -1.4,-0.3 -1.5,-1.2l0.5,0c0,0.6 0.5,0.7 1.1,0.7c0.5,0 1,-0.2 1,-0.8c0,-0.6 -0.6,-0.6 -1.2,-0.8c-0.6,-0.1 -1.2,-0.3 -1.2,-1c0,-0.8 0.7,-1.1 1.4,-1.1Z" style="fill-rule:nonzero;"/>
                <path d="M79.6,74.3c0,-0.6 -0.4,-0.9 -1.1,-0.9c-0.7,0 -1.1,0.7 -1.1,1.6c0,0.9 0.4,1.6 1.1,1.6c0.6,0 1,-0.4 1.1,-0.9l0.5,0c-0.1,0.9 -0.6,1.3 -1.5,1.3c-1.2,0 -1.7,-1 -1.7,-2.1c0,-1 0.6,-2.1 1.7,-2.1c0.8,0 1.4,0.5 1.5,1.3l-0.5,0l0,0.2Z" style="fill-rule:nonzero;"/>
                <path d="M81.1,73.7c0.3,-0.5 0.7,-0.7 1.2,-0.7c1.3,0 1.4,1.1 1.4,1.6l0,2.4l-0.5,0l0,-2.5c0,-0.7 -0.4,-1.1 -1,-1.1c-0.8,0 -1.1,0.6 -1.1,1.3l0,2.3l-0.5,0l0,-5.6l0.5,0l0,2.3Z" style="fill-rule:nonzero;"/>
                <path d="M85.2,75.2c0,0.8 0.4,1.5 1.3,1.5c0.5,0 1,-0.4 1.1,-0.9l0.5,0c-0.2,0.9 -0.8,1.3 -1.8,1.3c-1.2,0 -1.7,-1 -1.7,-2.1c0,-1 0.6,-2.1 1.7,-2.1c1.3,0 1.8,0.9 1.8,2.2l-2.9,0l0,0.1Zm2.5,-0.4c-0.1,-0.7 -0.5,-1.3 -1.3,-1.3c-0.8,0 -1.2,0.6 -1.2,1.3l2.5,0Z" style="fill-rule:nonzero;"/>
                <path d="M90.5,73c0.7,0 1.3,0.3 1.4,1.1l-0.5,0c0,-0.5 -0.5,-0.6 -1,-0.6c-0.4,0 -0.9,0.2 -0.9,0.6c0,0.6 0.7,0.5 1.8,0.9c0.4,0.1 0.7,0.5 0.7,0.9c0,0.9 -0.8,1.3 -1.6,1.3c-0.7,0 -1.4,-0.3 -1.5,-1.2l0.5,0c0,0.6 0.5,0.7 1.1,0.7c0.5,0 1,-0.2 1,-0.8c0,-0.6 -0.6,-0.6 -1.2,-0.8c-0.6,-0.1 -1.2,-0.3 -1.2,-1c0,-0.8 0.7,-1.1 1.4,-1.1Z" style="fill-rule:nonzero;"/>
                <path d="M95.4,77l0,-5.6l0.5,0l0,5.1l2.8,0l0,0.5l-3.3,0Z" style="fill-rule:nonzero;"/>
                <path d="M99.6,75.2c0,0.8 0.4,1.5 1.3,1.5c0.5,0 1,-0.4 1.1,-0.9l0.5,0c-0.2,0.9 -0.8,1.3 -1.8,1.3c-1.2,0 -1.7,-1 -1.7,-2.1c0,-1 0.6,-2.1 1.7,-2.1c1.3,0 1.8,0.9 1.8,2.2l-2.9,0l0,0.1Zm2.5,-0.4c-0.1,-0.7 -0.5,-1.3 -1.3,-1.3c-0.8,0 -1.2,0.6 -1.2,1.3l2.5,0Z" style="fill-rule:nonzero;"/>
                <path d="M104.1,73.7c0.3,-0.5 0.7,-0.7 1.2,-0.7c1.3,0 1.4,1.1 1.4,1.6l0,2.4l-0.5,0l0,-2.5c0,-0.7 -0.4,-1.1 -1,-1.1c-0.8,0 -1.1,0.6 -1.1,1.3l0,2.3l-0.5,0l0,-5.6l0.5,0l0,2.3Z" style="fill-rule:nonzero;"/>
                <path d="M108.4,77l-0.5,0l0,-3c0,-0.3 0,-0.6 0,-0.9l0.5,0l0,0.6c0.1,-0.4 0.5,-0.7 0.9,-0.7c0.2,0 0.3,0 0.5,0l0,0.4c-0.1,0 -0.2,0 -0.3,0c-0.7,0 -1,0.5 -1.1,1.2l0,2.4Z" style="fill-rule:nonzero;"/>
                <path d="M111,74.7l1.9,-1.6l0.6,0l-2,1.7l2.1,2.2l-0.6,0l-2,-2.1l0,2.1l-0.5,0l0,-5.6l0.5,0l0,3.3Z" style="fill-rule:nonzero;"/>
                <path d="M114.8,77l-0.5,0l0,-3c0,-0.3 0,-0.6 0,-0.9l0.5,0l0,0.6c0.1,-0.4 0.5,-0.7 0.9,-0.7c0.2,0 0.3,0 0.5,0l0,0.4c-0.1,0 -0.2,0 -0.3,0c-0.7,0 -1,0.5 -1.1,1.2l0,2.4Z" style="fill-rule:nonzero;"/>
                <path d="M119.1,74.3c0,-0.6 -0.4,-0.8 -0.9,-0.8c-0.5,0 -0.9,0.1 -0.9,0.7l-0.5,0c0.1,-0.8 0.7,-1.1 1.5,-1.1c0.9,0 1.4,0.4 1.4,1.3l0,2.7l-0.5,0l0,-0.6l0,0.1c-0.2,0.3 -0.7,0.6 -1.2,0.6c-0.7,0 -1.3,-0.4 -1.3,-1.2c0,-0.5 0.3,-0.9 0.8,-1.1c0.5,-0.2 1.2,-0.1 1.8,-0.2l0,-0.4l-0.2,0Zm-1.2,2.4c1,0 1.2,-0.8 1.2,-1.6c-0.7,0 -2,-0.1 -2,0.9c0,0.5 0.4,0.7 0.8,0.7Z" style="fill-rule:nonzero;"/>
                <path d="M121.2,77l-0.5,0l0,-3c0,-0.3 0,-0.6 0,-0.9l0.5,0l0,0.6c0.3,-0.5 0.7,-0.7 1.2,-0.7c1.3,0 1.4,1.1 1.4,1.6l0,2.4l-0.5,0l0,-2.5c0,-0.7 -0.4,-1.1 -1,-1.1c-0.8,0 -1.1,0.6 -1.1,1.3l0,2.3Z" style="fill-rule:nonzero;"/>
                <path d="M125.6,74.7l1.9,-1.6l0.6,0l-2,1.7l2.1,2.2l-0.6,0l-2,-2.1l0,2.1l-0.5,0l0,-5.6l0.5,0l0,3.3Z" style="fill-rule:nonzero;"/>
                <path d="M129,75.2c0,0.8 0.4,1.5 1.3,1.5c0.5,0 1,-0.4 1.1,-0.9l0.5,0c-0.2,0.9 -0.8,1.3 -1.8,1.3c-1.2,0 -1.7,-1 -1.7,-2.1c0,-1 0.6,-2.1 1.7,-2.1c1.3,0 1.8,0.9 1.8,2.2l-2.9,0l0,0.1Zm2.5,-0.4c-0.1,-0.7 -0.5,-1.3 -1.3,-1.3c-0.8,0 -1.2,0.6 -1.2,1.3l2.5,0Z" style="fill-rule:nonzero;"/>
                <path d="M133.5,77l-0.5,0l0,-3c0,-0.3 0,-0.6 0,-0.9l0.5,0l0,0.6c0.3,-0.5 0.7,-0.7 1.2,-0.7c1.3,0 1.4,1.1 1.4,1.6l0,2.4l-0.5,0l0,-2.5c0,-0.7 -0.4,-1.1 -1,-1.1c-0.8,0 -1.1,0.6 -1.1,1.3l0,2.3Z" style="fill-rule:nonzero;"/>
                <path d="M137.8,73.7c0.3,-0.5 0.7,-0.7 1.2,-0.7c1.3,0 1.4,1.1 1.4,1.6l0,2.4l-0.5,0l0,-2.5c0,-0.7 -0.4,-1.1 -1,-1.1c-0.8,0 -1.1,0.6 -1.1,1.3l0,2.3l-0.5,0l0,-5.6l0.5,0l0,2.3Z" style="fill-rule:nonzero;"/>
                <path d="M143.8,74.3c0,-0.6 -0.4,-0.8 -0.9,-0.8c-0.5,0 -0.9,0.1 -0.9,0.7l-0.5,0c0.1,-0.8 0.7,-1.1 1.4,-1.1c0.9,0 1.4,0.4 1.4,1.3l0,2.7l-0.5,0l0,-0.6l0,0.1c-0.2,0.3 -0.7,0.6 -1.2,0.6c-0.7,0 -1.3,-0.4 -1.3,-1.2c0,-0.5 0.3,-0.9 0.8,-1.1c0.5,-0.2 1.2,-0.1 1.8,-0.2l0,-0.4l-0.1,0Zm-1.1,2.4c1,0 1.2,-0.8 1.2,-1.6c-0.7,0 -2,-0.1 -2,0.9c-0.1,0.5 0.3,0.7 0.8,0.7Z" style="fill-rule:nonzero;"/>
                <path d="M148.1,73.1l0.5,0l0,3.9l-0.5,0l0,-0.6c-0.3,0.5 -0.7,0.7 -1.2,0.7c-1.3,0 -1.4,-1.1 -1.4,-1.6l0,-2.4l0.5,0l0,2.5c0,0.7 0.4,1.1 1,1.1c0.8,0 1.1,-0.6 1.1,-1.3l0,-2.3Z" style="fill-rule:nonzero;"/>
                <path d="M151.1,73c0.7,0 1.3,0.3 1.4,1.1l-0.5,0c0,-0.5 -0.5,-0.6 -1,-0.6c-0.4,0 -0.9,0.2 -0.9,0.6c0,0.6 0.7,0.5 1.8,0.9c0.4,0.1 0.7,0.5 0.7,0.9c0,0.9 -0.8,1.3 -1.6,1.3c-0.7,0 -1.4,-0.3 -1.5,-1.2l0.5,0c0,0.6 0.5,0.7 1.1,0.7c0.5,0 1,-0.2 1,-0.8c0,-0.6 -0.6,-0.6 -1.2,-0.8c-0.6,-0.1 -1.2,-0.3 -1.2,-1c-0.1,-0.8 0.7,-1.1 1.4,-1.1Z" style="fill-rule:nonzero;"/>
                <path d="M46,85.7c-0.3,0.4 -0.8,0.7 -1.3,0.7c-1.1,0 -1.6,-1.1 -1.6,-2.1c0,-1 0.4,-2 1.6,-2c0.5,0 1.1,0.2 1.3,0.7l0,-2.3l0.5,0l0,5.6l-0.5,0l0,-0.6Zm-1.3,-3c-0.9,0 -1.2,0.8 -1.2,1.6c0,0.7 0.2,1.7 1.1,1.7c1,0 1.3,-0.8 1.3,-1.7c0.1,-0.9 -0.3,-1.6 -1.2,-1.6Z" style="fill-rule:nonzero;"/>
                <path d="M47.9,84.4c0,0.8 0.4,1.5 1.3,1.5c0.5,0 1,-0.4 1.1,-0.9l0.5,0c-0.2,0.9 -0.8,1.3 -1.8,1.3c-1.2,0 -1.7,-1 -1.7,-2.1c0,-1 0.6,-2.1 1.7,-2.1c1.3,0 1.8,0.9 1.8,2.2l-2.9,0l0,0.1Zm2.4,-0.4c-0.1,-0.7 -0.5,-1.3 -1.3,-1.3c-0.8,0 -1.2,0.6 -1.2,1.3l2.5,0Z" style="fill-rule:nonzero;"/>
                <path d="M52.3,86.3l-0.5,0l0,-3c0,-0.3 0,-0.6 0,-0.9l0.5,0l0,0.6c0.1,-0.4 0.5,-0.7 0.9,-0.7c0.2,0 0.3,0 0.5,0l0,0.4c-0.1,0 -0.2,0 -0.3,0c-0.7,0 -1,0.5 -1.1,1.2l0,2.4Z" style="fill-rule:nonzero;"/>
                <path d="M56.7,86.3l0,-5.6l0.8,0l2.1,4.9l2.1,-4.9l0.8,0l0,5.6l-0.5,0l0,-5.1l-2.1,5.1l-0.5,0l-2.1,-5.1l0,5.1l-0.6,0Z" style="fill-rule:nonzero;"/>
                <path d="M64.1,84.4c0,0.8 0.4,1.5 1.3,1.5c0.5,0 1,-0.4 1.1,-0.9l0.5,0c-0.2,0.9 -0.8,1.3 -1.8,1.3c-1.2,0 -1.7,-1 -1.7,-2.1c0,-1 0.6,-2.1 1.7,-2.1c1.3,0 1.8,0.9 1.8,2.2l-2.9,0l0,0.1Zm2.5,-0.4c-0.1,-0.7 -0.5,-1.3 -1.3,-1.3c-0.8,0 -1.2,0.6 -1.2,1.3l2.5,0Z" style="fill-rule:nonzero;"/>
                <path d="M70.8,85.7c-0.3,0.4 -0.8,0.7 -1.3,0.7c-1.1,0 -1.6,-1.1 -1.6,-2.1c0,-1 0.4,-2 1.6,-2c0.5,0 1.1,0.2 1.3,0.7l0,-2.3l0.5,0l0,5.6l-0.5,0l0,-0.6Zm-1.2,-3c-0.9,0 -1.2,0.8 -1.2,1.6c0,0.7 0.2,1.7 1.1,1.7c1,0 1.3,-0.8 1.3,-1.7c0,-0.9 -0.3,-1.6 -1.2,-1.6Z" style="fill-rule:nonzero;"/>
                <path d="M73,81.3l-0.5,0l0,-0.6l0.5,0l0,0.6Zm-0.1,1.1l0,3.9l-0.5,0l0,-3.9l0.5,0Z" style="fill-rule:nonzero;"/>
                <path d="M73.8,85.8l2.3,-3l-2.3,0l0,-0.4l2.8,0l0,0.4l-2.2,3l2.2,0l0,0.4l-2.8,0l0,-0.4Z" style="fill-rule:nonzero;"/>
                <path d="M78.1,81.3l-0.5,0l0,-0.6l0.5,0l0,0.6Zm0,1.1l0,3.9l-0.5,0l0,-3.9l0.5,0Z" style="fill-rule:nonzero;"/>
                <path d="M79.8,86.3l-0.5,0l0,-3c0,-0.3 0,-0.6 0,-0.9l0.5,0l0,0.6c0.3,-0.5 0.7,-0.7 1.2,-0.7c1.3,0 1.4,1.1 1.4,1.6l0,2.4l-0.5,0l0,-2.5c0,-0.7 -0.4,-1.1 -1,-1.1c-0.8,0 -1.1,0.6 -1.1,1.3l0,2.3Z" style="fill-rule:nonzero;"/>
                <path d="M84.1,81.3l-0.5,0l0,-0.6l0.5,0l0,0.6Zm0,1.1l0,3.9l-0.5,0l0,-3.9l0.5,0Z" style="fill-rule:nonzero;"/>
                <path d="M86.6,82.3c0.7,0 1.3,0.3 1.4,1.1l-0.5,0c0,-0.5 -0.5,-0.6 -1,-0.6c-0.4,0 -0.9,0.2 -0.9,0.6c0,0.6 0.7,0.5 1.8,0.9c0.4,0.1 0.7,0.5 0.7,0.9c0,0.9 -0.8,1.3 -1.6,1.3c-0.7,0 -1.4,-0.3 -1.5,-1.2l0.5,0c0,0.6 0.5,0.7 1.1,0.7c0.5,0 1,-0.2 1,-0.8c0,-0.6 -0.6,-0.6 -1.2,-0.8c-0.6,-0.1 -1.2,-0.3 -1.2,-1c0,-0.8 0.7,-1.1 1.4,-1.1Z" style="fill-rule:nonzero;"/>
                <path d="M91.6,83.6c0,-0.6 -0.4,-0.9 -1.1,-0.9c-0.7,0 -1.1,0.7 -1.1,1.6c0,0.9 0.4,1.6 1.1,1.6c0.6,0 1,-0.4 1.1,-0.9l0.5,0c-0.1,0.9 -0.6,1.3 -1.5,1.3c-1.2,0 -1.7,-1 -1.7,-2.1c0,-1 0.6,-2.1 1.7,-2.1c0.8,0 1.4,0.5 1.5,1.3l-0.5,0l0,0.2Z" style="fill-rule:nonzero;"/>
                <path d="M93.1,83c0.3,-0.5 0.7,-0.7 1.2,-0.7c1.3,0 1.4,1.1 1.4,1.6l0,2.4l-0.5,0l0,-2.5c0,-0.7 -0.4,-1.1 -1,-1.1c-0.8,0 -1.1,0.6 -1.1,1.3l0,2.2l-0.5,0l0,-5.6l0.5,0l0,2.4Z" style="fill-rule:nonzero;"/>
                <path d="M97.2,84.4c0,0.8 0.4,1.5 1.3,1.5c0.5,0 1,-0.4 1.1,-0.9l0.5,0c-0.2,0.9 -0.8,1.3 -1.8,1.3c-1.2,0 -1.7,-1 -1.7,-2.1c0,-1 0.6,-2.1 1.7,-2.1c1.3,0 1.8,0.9 1.8,2.2l-2.9,0l0,0.1Zm2.5,-0.4c-0.1,-0.7 -0.5,-1.3 -1.3,-1.3c-0.8,0 -1.2,0.6 -1.2,1.3l2.5,0Z" style="fill-rule:nonzero;"/>
                <path d="M101.7,86.3l-0.5,0l0,-3c0,-0.3 0,-0.6 0,-0.9l0.5,0l0,0.6c0.3,-0.5 0.7,-0.7 1.2,-0.7c1.3,0 1.4,1.1 1.4,1.6l0,2.4l-0.5,0l0,-2.5c0,-0.7 -0.4,-1.1 -1,-1.1c-0.8,0 -1.1,0.6 -1.1,1.3l0,2.3Z" style="fill-rule:nonzero;"/>
                <path d="M107.7,86.3l0,-5.6l3.1,0l0,0.5l-2.6,0l0,2l2.6,0l0,0.5l-2.6,0l0,2.7l-0.5,0l0,-0.1Z" style="fill-rule:nonzero;"/>
                <path d="M114,83.5c0,-0.6 -0.4,-0.8 -0.9,-0.8c-0.5,0 -0.9,0.1 -0.9,0.7l-0.5,0c0.1,-0.8 0.7,-1.1 1.4,-1.1c0.9,0 1.4,0.4 1.4,1.3l0,2.7l-0.5,0l0,-0.6l0,0.1c-0.2,0.3 -0.7,0.6 -1.2,0.6c-0.7,0 -1.3,-0.4 -1.3,-1.2c0,-0.5 0.3,-0.9 0.8,-1.1c0.5,-0.2 1.2,-0.1 1.8,-0.2l0,-0.4l-0.1,0Zm-1.2,2.5c1,0 1.2,-0.8 1.2,-1.6c-0.7,0 -2,-0.1 -2,0.9c-0.1,0.4 0.3,0.7 0.8,0.7Z" style="fill-rule:nonzero;"/>
                <path d="M116.1,84l1.9,-1.6l0.6,0l-2,1.7l2.1,2.2l-0.6,0l-2,-2.1l0,2.1l-0.5,0l0,-5.6l0.5,0l0,3.3Z" style="fill-rule:nonzero;"/>
                <path d="M122.1,82.4l0.5,0l0,3.9l-0.5,0l0,-0.6c-0.3,0.5 -0.7,0.7 -1.2,0.7c-1.3,0 -1.4,-1.1 -1.4,-1.6l0,-2.4l0.5,0l0,2.5c0,0.7 0.4,1.1 1,1.1c0.8,0 1.1,-0.6 1.1,-1.3l0,-2.3l0,0Z" style="fill-rule:nonzero;"/>
                <rect x="123.7" y="80.7" width="0.5" height="5.6" style="fill-rule:nonzero;"/>
                <path d="M125.8,82.8l-0.8,0l0,-0.4l0.8,0l0,-0.8l0.5,-0.2l0,1l0.9,0l0,0.4l-0.9,0l0,2.6c0,0.4 0.2,0.5 0.5,0.5c0.1,0 0.3,0 0.4,0l0,0.4c-0.1,0 -0.3,0.1 -0.5,0.1c-1,0 -0.9,-0.6 -0.9,-1.1l0,-2.5Z" style="fill-rule:nonzero;"/>
                <path d="M130.2,83.5c0,-0.6 -0.4,-0.8 -0.9,-0.8c-0.5,0 -0.9,0.1 -0.9,0.7l-0.5,0c0.1,-0.8 0.7,-1.1 1.4,-1.1c0.9,0 1.4,0.4 1.4,1.3l0,2.7l-0.5,0l0,-0.6l0,0.1c-0.2,0.3 -0.7,0.6 -1.2,0.6c-0.7,0 -1.3,-0.4 -1.3,-1.2c0,-0.5 0.3,-0.9 0.8,-1.1c0.5,-0.2 1.2,-0.1 1.8,-0.2l0,-0.4l-0.1,0Zm-1.1,2.5c1,0 1.2,-0.8 1.2,-1.6c-0.7,0 -2,-0.1 -2,0.9c-0.1,0.4 0.3,0.7 0.8,0.7Zm-0.7,-4.5l0,-0.7l0.6,0l0,0.7l-0.6,0Zm1.3,0l0,-0.7l0.6,0l0,0.7l-0.6,0Z" style="fill-rule:nonzero;"/>
                <path d="M132.2,82.8l-0.8,0l0,-0.4l0.8,0l0,-0.8l0.5,-0.2l0,1l0.9,0l0,0.4l-0.9,0l0,2.6c0,0.4 0.2,0.5 0.5,0.5c0.1,0 0.3,0 0.4,0l0,0.4c-0.1,0 -0.3,0.1 -0.5,0.1c-1,0 -0.9,-0.6 -0.9,-1.1l0,-2.5Z" style="fill-rule:nonzero;"/>
                <path d="M136.7,86.3l0,-5.6l0.8,0l2.1,4.9l2.1,-4.9l0.8,0l0,5.6l-0.5,0l0,-5.1l-2.1,5.1l-0.5,0l-2.1,-5.1l0,5.1l-0.6,0Z" style="fill-rule:nonzero;"/>
                <path d="M146.1,83.5c0,-0.6 -0.4,-0.8 -0.9,-0.8c-0.5,0 -0.9,0.1 -0.9,0.7l-0.5,0c0.1,-0.8 0.7,-1.1 1.4,-1.1c0.9,0 1.4,0.4 1.4,1.3l0,2.7l-0.5,0l0,-0.6l0,0.1c-0.2,0.3 -0.7,0.6 -1.2,0.6c-0.7,0 -1.3,-0.4 -1.3,-1.2c0,-0.5 0.3,-0.9 0.8,-1.1c0.5,-0.2 1.2,-0.1 1.8,-0.2l0,-0.4l-0.1,0Zm-1.2,2.5c1,0 1.2,-0.8 1.2,-1.6c-0.7,0 -2,-0.1 -2,0.9c0,0.4 0.4,0.7 0.8,0.7Z" style="fill-rule:nonzero;"/>
                <path d="M148.2,86.3l-0.5,0l0,-3c0,-0.3 0,-0.6 0,-0.9l0.5,0l0,0.6c0.3,-0.5 0.7,-0.7 1.2,-0.7c1.3,0 1.4,1.1 1.4,1.6l0,2.4l-0.5,0l0,-2.5c0,-0.7 -0.4,-1.1 -1,-1.1c-0.8,0 -1.1,0.6 -1.1,1.3l0,2.3Z" style="fill-rule:nonzero;"/>
                <path d="M152.5,86.3l-0.5,0l0,-3c0,-0.3 0,-0.6 0,-0.9l0.5,0l0,0.6c0.3,-0.5 0.7,-0.7 1.2,-0.7c1.3,0 1.4,1.1 1.4,1.6l0,2.4l-0.5,0l0,-2.5c0,-0.7 -0.4,-1.1 -1,-1.1c-0.8,0 -1.1,0.6 -1.1,1.3l0,2.3Z" style="fill-rule:nonzero;"/>
                <path d="M156.8,83c0.3,-0.5 0.7,-0.7 1.2,-0.7c1.3,0 1.4,1.1 1.4,1.6l0,2.4l-0.5,0l0,-2.5c0,-0.7 -0.4,-1.1 -1,-1.1c-0.8,0 -1.1,0.6 -1.1,1.3l0,2.2l-0.5,0l0,-5.6l0.5,0l0,2.4Z" style="fill-rule:nonzero;"/>
                <path d="M160.9,84.4c0,0.8 0.4,1.5 1.3,1.5c0.5,0 1,-0.4 1.1,-0.9l0.5,0c-0.2,0.9 -0.8,1.3 -1.8,1.3c-1.2,0 -1.7,-1 -1.7,-2.1c0,-1 0.6,-2.1 1.7,-2.1c1.3,0 1.8,0.9 1.8,2.2l-2.9,0l0,0.1Zm2.5,-0.4c-0.1,-0.7 -0.5,-1.3 -1.3,-1.3c-0.8,0 -1.2,0.6 -1.2,1.3l2.5,0Z" style="fill-rule:nonzero;"/>
                <path d="M165.4,81.3l-0.5,0l0,-0.6l0.5,0l0,0.6Zm0,1.1l0,3.9l-0.5,0l0,-3.9l0.5,0Z" style="fill-rule:nonzero;"/>
                <path d="M167.1,83c0.3,-0.5 0.7,-0.7 1.2,-0.7c0.6,0 1.1,0.3 1.3,0.8c0.3,-0.5 0.7,-0.8 1.3,-0.8c1.3,0 1.4,1.1 1.4,1.6l0,2.4l-0.5,0l0,-2.5c0,-0.7 -0.4,-1.1 -1,-1.1c-0.8,0 -1.1,0.6 -1.1,1.3l0,2.2l-0.5,0l0,-2.5c0,-0.7 -0.4,-1.1 -1,-1.1c-0.8,0 -1.1,0.6 -1.1,1.3l0,2.2l-0.5,0l0,-3c0,-0.3 0,-0.6 0,-0.9l0.5,0l0,0.8Z" style="fill-rule:nonzero;"/>
                <path d="M46,94.9c-0.3,0.4 -0.8,0.7 -1.3,0.7c-1.1,0 -1.6,-1.1 -1.6,-2.1c0,-1 0.4,-2 1.6,-2c0.5,0 1.1,0.2 1.3,0.7l0,-2.3l0.5,0l0,5.6l-0.5,0l0,-0.6Zm-1.3,-2.9c-0.9,0 -1.2,0.8 -1.2,1.6c0,0.7 0.2,1.7 1.1,1.7c1,0 1.3,-0.8 1.3,-1.7c0.1,-0.9 -0.3,-1.6 -1.2,-1.6Z" style="fill-rule:nonzero;"/>
                <path d="M47.9,93.7c0,0.8 0.4,1.5 1.3,1.5c0.5,0 1,-0.4 1.1,-0.9l0.5,0c-0.2,0.9 -0.8,1.3 -1.8,1.3c-1.2,0 -1.7,-1 -1.7,-2.1c0,-1 0.6,-2.1 1.7,-2.1c1.3,0 1.8,0.9 1.8,2.2l-2.9,0l0,0.1Zm2.4,-0.4c-0.1,-0.7 -0.5,-1.3 -1.3,-1.3c-0.8,0 -1.2,0.6 -1.2,1.3l2.5,0Z" style="fill-rule:nonzero;"/>
                <path d="M52.3,95.5l-0.5,0l0,-3c0,-0.3 0,-0.6 0,-0.9l0.5,0l0,0.6c0.1,-0.4 0.5,-0.7 0.9,-0.7c0.2,0 0.3,0 0.5,0l0,0.5c-0.1,0 -0.2,0 -0.3,0c-0.7,0 -1,0.5 -1.1,1.2l0,2.3Z" style="fill-rule:nonzero;"/>
                <path d="M57.2,89.9l0,3.6c0,1 0.6,1.6 1.5,1.6c0.9,0 1.5,-0.6 1.5,-1.6l0,-3.6l0.5,0l0,3.6c0,1.2 -0.7,2.1 -2,2.1c-1.3,0 -2,-0.9 -2,-2.1l0,-3.6l0.5,0Z" style="fill-rule:nonzero;"/>
                <path d="M62.6,95.5l-0.5,0l0,-3c0,-0.3 0,-0.6 0,-0.9l0.5,0l0,0.6c0.3,-0.5 0.7,-0.7 1.2,-0.7c1.3,0 1.4,1.1 1.4,1.6l0,2.4l-0.5,0l0,-2.5c0,-0.7 -0.4,-1.1 -1,-1.1c-0.8,0 -1.1,0.6 -1.1,1.3l0,2.3Z" style="fill-rule:nonzero;"/>
                <path d="M67,90.5l-0.5,0l0,-0.6l0.5,0l0,0.6Zm-0.1,1.1l0,3.9l-0.5,0l0,-3.9l0.5,0Z" style="fill-rule:nonzero;"/>
                <path d="M68.2,91.6l1.3,3.2l1.3,-3.2l0.5,0l-1.5,3.9l-0.5,0l-1.6,-3.9l0.5,0Z" style="fill-rule:nonzero;"/>
                <path d="M72.1,93.7c0,0.8 0.4,1.5 1.3,1.5c0.5,0 1,-0.4 1.1,-0.9l0.5,0c-0.2,0.9 -0.8,1.3 -1.8,1.3c-1.2,0 -1.7,-1 -1.7,-2.1c0,-1 0.6,-2.1 1.7,-2.1c1.3,0 1.8,0.9 1.8,2.2l-2.9,0l0,0.1Zm2.5,-0.4c-0.1,-0.7 -0.5,-1.3 -1.3,-1.3c-0.8,0 -1.2,0.6 -1.2,1.3l2.5,0Z" style="fill-rule:nonzero;"/>
                <path d="M76.6,95.5l-0.5,0l0,-3c0,-0.3 0,-0.6 0,-0.9l0.5,0l0,0.6c0.1,-0.4 0.5,-0.7 0.9,-0.7c0.2,0 0.3,0 0.5,0l0,0.5c-0.1,0 -0.2,0 -0.3,0c-0.7,0 -1,0.5 -1.1,1.2l0,2.3Z" style="fill-rule:nonzero;"/>
                <path d="M80,91.5c0.7,0 1.3,0.3 1.4,1.1l-0.5,0c0,-0.5 -0.5,-0.6 -1,-0.6c-0.4,0 -0.9,0.2 -0.9,0.6c0,0.6 0.7,0.5 1.8,0.9c0.4,0.1 0.7,0.5 0.7,0.9c0,0.9 -0.8,1.3 -1.6,1.3c-0.7,0 -1.4,-0.3 -1.5,-1.2l0.6,0c0,0.6 0.5,0.7 1.1,0.7c0.5,0 1,-0.2 1,-0.8c0,-0.6 -0.6,-0.6 -1.2,-0.8c-0.6,-0.1 -1.2,-0.3 -1.2,-1c-0.1,-0.8 0.6,-1.1 1.3,-1.1Z" style="fill-rule:nonzero;"/>
                <path d="M83.1,90.5l-0.5,0l0,-0.6l0.5,0l0,0.6Zm-0.1,1.1l0,3.9l-0.5,0l0,-3.9l0.5,0Z" style="fill-rule:nonzero;"/>
                <path d="M84.6,92.1l-0.8,0l0,-0.4l0.8,0l0,-0.8l0.5,-0.2l0,1l0.9,0l0,0.4l-0.9,0l0,2.6c0,0.4 0.2,0.5 0.5,0.5c0.1,0 0.3,0 0.4,0l0,0.4c-0.1,0 -0.3,0.1 -0.5,0.1c-1,0 -0.9,-0.6 -0.9,-1.1l0,-2.5Z" style="fill-rule:nonzero;"/>
                <path d="M89,92.8c0,-0.6 -0.4,-0.8 -0.9,-0.8c-0.5,0 -0.9,0.1 -0.9,0.7l-0.5,0c0.1,-0.8 0.7,-1.1 1.5,-1.1c0.9,0 1.4,0.4 1.4,1.3l0,2.7l-0.5,0l0,-0.6l0,0.1c-0.2,0.3 -0.7,0.6 -1.2,0.6c-0.7,0 -1.3,-0.4 -1.3,-1.2c0,-0.5 0.3,-0.9 0.8,-1.1c0.5,-0.2 1.2,-0.1 1.8,-0.2l0,-0.4l-0.2,0Zm-1.1,2.4c1,0 1.2,-0.8 1.2,-1.6c-0.7,0 -2,-0.1 -2,0.9c-0.1,0.5 0.3,0.7 0.8,0.7Zm-0.7,-4.5l0,-0.7l0.6,0l0,0.7l-0.6,0Zm1.3,0l0,-0.7l0.6,0l0,0.7l-0.6,0Z" style="fill-rule:nonzero;"/>
                <path d="M91,92.1l-0.8,0l0,-0.4l0.8,0l0,-0.8l0.5,-0.2l0,1l0.9,0l0,0.4l-0.9,0l0,2.6c0,0.4 0.2,0.5 0.5,0.5c0.1,0 0.3,0 0.4,0l0,0.4c-0.1,0 -0.3,0.1 -0.5,0.1c-1,0 -0.9,-0.6 -0.9,-1.1l0,-2.5Z" style="fill-rule:nonzero;"/>
                <path d="M95.6,95.5l0,-5.6l0.5,0l0,2.4l3,0l0,-2.4l0.5,0l0,5.6l-0.5,0l0,-2.7l-3,0l0,2.7l-0.5,0Z" style="fill-rule:nonzero;"/>
                <path d="M101.3,93.7c0,0.8 0.4,1.5 1.3,1.5c0.5,0 1,-0.4 1.1,-0.9l0.5,0c-0.2,0.9 -0.8,1.3 -1.8,1.3c-1.2,0 -1.7,-1 -1.7,-2.1c0,-1 0.6,-2.1 1.7,-2.1c1.3,0 1.8,0.9 1.8,2.2l-2.9,0l0,0.1Zm2.5,-0.4c-0.1,-0.7 -0.5,-1.3 -1.3,-1.3c-0.8,0 -1.2,0.6 -1.2,1.3l2.5,0Z" style="fill-rule:nonzero;"/>
                <path d="M105.8,90.5l-0.5,0l0,-0.6l0.5,0l0,0.6Zm-0.1,1.1l0,3.9l-0.5,0l0,-3.9l0.5,0Z" style="fill-rule:nonzero;"/>
                <path d="M109.7,94.9c-0.3,0.4 -0.8,0.7 -1.3,0.7c-1.1,0 -1.6,-1.1 -1.6,-2.1c0,-1 0.4,-2 1.6,-2c0.5,0 1.1,0.2 1.3,0.7l0,-2.3l0.5,0l0,5.6l-0.5,0l0,-0.6Zm-1.3,-2.9c-0.9,0 -1.2,0.8 -1.2,1.6c0,0.7 0.2,1.7 1.1,1.7c1,0 1.3,-0.8 1.3,-1.7c0,-0.9 -0.3,-1.6 -1.2,-1.6Z" style="fill-rule:nonzero;"/>
                <path d="M111.5,93.7c0,0.8 0.4,1.5 1.3,1.5c0.5,0 1,-0.4 1.1,-0.9l0.5,0c-0.2,0.9 -0.8,1.3 -1.8,1.3c-1.2,0 -1.7,-1 -1.7,-2.1c0,-1 0.6,-2.1 1.7,-2.1c1.3,0 1.8,0.9 1.8,2.2l-2.9,0l0,0.1Zm2.5,-0.4c-0.1,-0.7 -0.5,-1.3 -1.3,-1.3c-0.8,0 -1.2,0.6 -1.2,1.3l2.5,0Z" style="fill-rule:nonzero;"/>
                <rect x="115.5" y="89.9" width="0.5" height="5.6" style="fill-rule:nonzero;"/>
                <path d="M117.6,95.5l-0.5,0c0,-0.3 0,-0.6 0,-0.9l0,-4.7l0.5,0l0,2.3c0.3,-0.5 0.8,-0.7 1.3,-0.7c1.1,0 1.6,1 1.6,2c0,1 -0.4,2.1 -1.6,2.1c-0.6,0 -1,-0.3 -1.3,-0.7l0,0.6Zm0.1,-2c0,0.9 0.3,1.7 1.3,1.7c0.9,0 1.1,-1 1.1,-1.7c0,-0.7 -0.3,-1.6 -1.2,-1.6c-0.9,0.1 -1.2,0.8 -1.2,1.6Z" style="fill-rule:nonzero;"/>
                <path d="M121.8,93.7c0,0.8 0.4,1.5 1.3,1.5c0.5,0 1,-0.4 1.1,-0.9l0.5,0c-0.2,0.9 -0.8,1.3 -1.8,1.3c-1.2,0 -1.7,-1 -1.7,-2.1c0,-1 0.6,-2.1 1.7,-2.1c1.3,0 1.8,0.9 1.8,2.2l-2.9,0l0,0.1Zm2.5,-0.4c-0.1,-0.7 -0.5,-1.3 -1.3,-1.3c-0.8,0 -1.2,0.6 -1.2,1.3l2.5,0Z" style="fill-rule:nonzero;"/>
                <path d="M126.3,95.5l-0.5,0l0,-3c0,-0.3 0,-0.6 0,-0.9l0.5,0l0,0.6c0.1,-0.4 0.5,-0.7 0.9,-0.7c0.2,0 0.3,0 0.5,0l0,0.5c-0.1,0 -0.2,0 -0.3,0c-0.7,0 -1,0.5 -1.1,1.2l0,2.3Z" style="fill-rule:nonzero;"/>
                <path d="M131.1,91.6l0.5,0l0,3.2c0,0.8 0,1.6 -0.8,2c-0.3,0.1 -0.5,0.2 -0.9,0.2c-0.7,0 -1.5,-0.2 -1.5,-1l0.5,0c0.1,0.5 0.6,0.6 1.1,0.6c0.6,0 1.2,-0.4 1.2,-1.1l0,-0.7c-0.2,0.5 -0.8,0.7 -1.3,0.7c-1.2,0 -1.7,-0.9 -1.7,-2c0,-1 0.5,-2 1.7,-2c0.6,0 1,0.3 1.3,0.7l-0.1,-0.6Zm-1.2,0.4c-0.8,0 -1.2,0.8 -1.2,1.6c0,0.7 0.4,1.6 1.2,1.6c0.9,0 1.2,-0.8 1.2,-1.6c0,-0.8 -0.4,-1.6 -1.2,-1.6Z" style="fill-rule:nonzero;"/>
            </g>
        </g>
	</defs>
    <use xlink:href="#smk-logo"></use>
    </svg>
